<svg version="1.1" xmlns="http://www.w3.org/2000/svg" xmlns:xlink="http://www.w3.org/1999/xlink" x="0px" y="0px" width="41.169px" height="41.169px" viewBox="0 0 41.169 41.169" style="enable-background:new 0 0 41.169 41.169;" xml:space="preserve"> <g> <g> <path d="M19.814,22.442c-0.344,0-0.676-0.14-0.918-0.39c-0.281-0.291-0.409-0.696-0.342-1.097l0.6-3.612&#10;&#9;&#9;&#9;&#9;&#9;c0.044-0.262,0.169-0.505,0.357-0.693L35.788,0.374c0.498-0.499,1.307-0.499,1.805,0l3.115,3.116&#10;&#9;&#9;&#9;&#9;&#9;c0.24,0.239,0.374,0.563,0.374,0.903c0,0.339-0.134,0.663-0.374,0.903L24.433,21.571c-0.197,0.198-0.457,0.326-0.732,0.363&#10;&#9;&#9;&#9;&#9;&#9;l-3.716,0.497C19.926,22.438,19.87,22.442,19.814,22.442z M21.606,18.166l-0.25,1.505l1.576-0.211L38.001,4.393L36.69,3.082&#10;&#9;&#9;&#9;&#9;&#9;L21.606,18.166z"/> <path d="M35.84,37.338H3.917V5.415h21.922l3.831-3.831H2.002c-0.509,0-0.995,0.202-1.354,0.562C0.29,2.505,0.087,2.993,0.087,3.5&#10;&#9;&#9;&#9;&#9;&#9;v35.753c0,0.529,0.214,1.008,0.561,1.354c0.347,0.347,0.826,0.562,1.354,0.562h35.754c0.508,0,0.996-0.202,1.354-0.562&#10;&#9;&#9;&#9;&#9;&#9;s0.562-0.848,0.562-1.354V11.666l-3.831,3.83L35.84,37.338L35.84,37.338z"/> </g> </g> </svg>