<svg id="Layer_1" data-name="Layer 1" xmlns="http://www.w3.org/2000/svg" viewBox="0 0 1066 143.2"><defs><style>.cls-1{fill:#fff;}.cls-2{fill:#5db5e6;}</style></defs><path class="cls-1" d="M7,178.7H50.3q43.8,0,43.8,35.1c0,12.3-4.3,21.5-13,27.8s-18.5,8.3-32.1,8.3H28.3v51.5H7Zm21.3,16v39.2H48.4c16.1,0,24.2-6.6,24.2-19.9s-7.8-19.3-23.4-19.3Z" transform="translate(-7 -168.4)"/><path class="cls-1" d="M138.1,178.7V284.2h57.6v17.2H116.6V178.7Z" transform="translate(-7 -168.4)"/><path class="cls-1" d="M296.3,178.7v16.9H236.6v32.5h45.1V245H236.6v39.5h60.9v16.9H215.3V178.7Z" transform="translate(-7 -168.4)"/><path class="cls-1" d="M411.9,178.7V301.4H385.8L356,238.2c-6.3-13.7-12.2-27.2-17.6-40.6h-2.1c.7,13.6,1.1,28.4,1.1,44.4v59.4H317.7V178.7h32.2l25.5,54.4a400.6,400.6,0,0,1,16.2,42.1h2.2q-1.5-25-1.5-45V178.7Z" transform="translate(-7 -168.4)"/><path class="cls-1" d="M462.8,178.7V301.4H441.2V178.7Z" transform="translate(-7 -168.4)"/><path class="cls-1" d="M738.6,177.6v17.2H702.1V300.3H680.6V194.8H644.3V177.6Z" transform="translate(-7 -168.4)"/><path class="cls-1" d="M851.1,177.6v80.3c0,15.5-4.8,27.1-14.2,34.8s-18.7,9.8-32.2,9.8c-15.6,0-27.5-4.2-35.6-12.6s-11.2-18.4-11.2-32V177.6h21.3v80c0,19.1,8.7,28.6,26,28.6s25.9-9.5,25.9-28.6v-80Z" transform="translate(-7 -168.4)"/><path class="cls-1" d="M880.2,177.6h44.1c29,0,43.4,11.1,43.4,33.4,0,8.1-2.3,15-7.1,20.5s-9.9,8.4-17.2,10.7l28.4,58.1h-23l-24.8-55-5.6.2H901v54.8H880.2Zm20.8,16v36h21.4q24,0,24-18.3t-23.1-17.7Z" transform="translate(-7 -168.4)"/><path class="cls-1" d="M1071.8,177.6v16.9h-59.7v32.4h45.1v17h-45.1v39.5H1073v16.9H990.8V177.6Z" transform="translate(-7 -168.4)"/><path class="cls-2" d="M600.1,172.9l-1.7-2.7-.2-.4H517.1l-1,1.5-37.8,65.5-1.6,2.9-.2.3,40.6,70.4h81.1l39.7-68.7.7-1.3.2-.4Zm3.8,67.9-73-45.6,64.6-20.8Zm-1.2,3.6-71.9,40.8V199.3Zm-18.4-70.3-54.2,17.5-.3.2-.2-.7-8.2-17Zm-65.9,2,8.4,17.8-42.2,40.8Zm8.1,23,.6,84.8L484,240.4Zm-38.6,52.1,38,36.6.8.8-.4.7-7.8,14.8ZM521.5,306l7.8-14.7.5-.8,1,.2L580.4,306Zm72.5,0v.3l-1.1-.3-59.4-18.3,70.4-39.8Zm4.5-4.8,9.2-55.3,24.7-3.4Zm9.9-59-.7.2v-.9l-7.6-59.9L633,238.7Z" transform="translate(-7 -168.4)"/><path class="cls-2" d="M599,311.7H516.3l-.4-.7-41.1-71.2.9-.9,1.4-2.7,39.2-67.8h82.9l.4,1.3,1.6,2.6L640.4,240l-1.3,2.3Zm-81.2-2.6h79.7L637.3,240l-39.9-68.9H517.8l-.5.9L478,240.1l1,1.7,39.5-68.6,9.9,21-.7.6-48.6,47.1Zm.5-130.2-27.9,48.3,34.8-33.6ZM596,308.1l10.6-63.3,28.3-4Zm12.9-61L601,294.2l28.9-50Zm-14.3,60.7-2.1-.5-62.4-19.2,75.4-42.7-10.4,61.5Zm-57.9-20.4,56.2,17.3,9.1-54.3Zm52.5,19.9H519.3l10-18.4,1.8.6Zm-65.5-2.6h48L530.4,292Zm-5.1,2.1-36.5-63.1,46.2,44.7-.9,1.6Zm-24.8-48.1,24.6,42.6,6.6-12.5h0Zm35.6,28.8V196.9l75.9,47.5-1.9,1.1Zm2.7-85.8v81.2l68-38.6Zm-3.7,85.4-46.3-46.7,45.7-44.3v3Zm-42.6-46.7,39.9,40.3-.5-78.5ZM606.4,244v-2.5l-8.5-66.2,37.2,64.4Zm-4.2-56,6.8,52.8,21.9-3.1Zm3.4,55.4-77.8-48.6,2.7-.9,66.1-21.3.2,1.6ZM534,195.6l68.2,42.6-7.8-62.1Zm-4.8-2.1-9.9-20.7h73.3l-62.1,20.1Zm-5.7-18.1,7,14.7,45.4-14.7Z" transform="translate(-7 -168.4)"/></svg>