<svg version="1.1" xmlns="http://www.w3.org/2000/svg" xmlns:xlink="http://www.w3.org/1999/xlink" x="0px" y="0px" width="47.324px" height="47.324px" viewBox="0 0 47.324 47.324" style="enable-background:new 0 0 47.324 47.324;" xml:space="preserve"> <g> <g> <path d="M46.029,6.85c-0.353-0.501-0.926-0.799-1.539-0.799H11.382l-2.21-4.938C8.87,0.436,8.196,0,7.456,0H2.834&#10;&#9;&#9;&#9;&#9;&#9;&#9;C1.795,0,0.953,0.843,0.953,1.882s0.843,1.882,1.882,1.882h3.401l2.112,4.722l4.181,24.025c0.156,0.901,0.939,1.56,1.854,1.56&#10;&#9;&#9;&#9;&#9;&#9;&#9;h21.396c0.795,0,1.504-0.498,1.771-1.246l8.71-24.255C46.468,7.992,46.382,7.351,46.029,6.85z M34.457,30.307H15.965L12.4,9.815&#10;&#9;&#9;&#9;&#9;&#9;&#9;h29.416L34.457,30.307z"/> <path d="M19.601,36.449c-2.998,0-5.438,2.438-5.438,5.438s2.44,5.438,5.438,5.438s5.438-2.438,5.438-5.438&#10;&#9;&#9;&#9;&#9;&#9;&#9;S22.599,36.449,19.601,36.449z M19.601,43.562c-0.924,0-1.675-0.75-1.675-1.675c0-0.924,0.751-1.675,1.675-1.675&#10;&#9;&#9;&#9;&#9;&#9;&#9;c0.923,0,1.674,0.751,1.674,1.675C21.274,42.812,20.523,43.562,19.601,43.562z"/> <path d="M35.054,36.449c-2.999,0-5.438,2.438-5.438,5.438s2.438,5.438,5.438,5.438c2.997,0,5.438-2.438,5.438-5.438&#10;&#9;&#9;&#9;&#9;&#9;&#9;S38.051,36.449,35.054,36.449z M35.054,43.562c-0.924,0-1.675-0.75-1.675-1.675c0-0.924,0.751-1.675,1.675-1.675&#10;&#9;&#9;&#9;&#9;&#9;&#9;c0.922,0,1.674,0.751,1.674,1.675C36.728,42.812,35.976,43.562,35.054,43.562z"/> </g> </g> </svg>